<?xml version="1.0" encoding="UTF-8"?>
<svg id="Capa_2" data-name="Capa 2" xmlns="http://www.w3.org/2000/svg" viewBox="0 0 40.35 39.21">
  <defs>
    <style>
      .cls-1 {
        fill: #e83089;
      }

      .cls-2 {
        fill: #fff;
      }

      .cls-3 {
        fill: #22213f;
      }
    </style>
  </defs>
  <g id="Capa_1-2" data-name="Capa 1">
    <path class="cls-1" d="M39.91,34.5c-1.07,2.61-3.37,4.48-6.29,4.71H6.82C3.22,38.91.26,36.14,0,32.5V6.62C.29,3.19,3.01.41,6.43,0h27.5c3.46.41,6,3.11,6.42,6.52v26.07c-.11.64-.19,1.3-.44,1.9Z"/>
    <path class="cls-3" d="M17.88,27.77h3.69c.06,0,.14-.14.13-.23-.01-.22-.38-1.12-.48-1.42-1.75-5.16-3.8-10.22-5.51-15.4l-.17-.23-4.58-.05-.14,1.3-5.52,15.79c-.04.08.1.23.13.23h3.39c.66-1.3.91-2.81,1.46-4.16l6.06.03,1.54,4.13Z"/>
    <path class="cls-3" d="M34.37,21.7v-2.64c0-2.01-1.75-4.15-3.64-4.72-9.07-2.73-11.48,11-3.98,13.13,1.98.56,4.7.38,6.53-.55v-2.74c-1.43.13-2.78.5-4.22.29-1.66-.24-2.77-1.15-2.95-2.87l8.27.1Z"/>
    <polygon class="cls-3" points="15.34 20.3 11.26 20.3 13.3 13.64 15.34 20.3"/>
    <path class="cls-2" d="M17.88,27.77l-1.54-4.13-6.06-.03c-.55,1.35-.8,2.86-1.46,4.16h-3.39s-.18-.15-.13-.23l5.52-15.79.14-1.3,4.58.05.17.23c1.71,5.17,3.75,10.24,5.51,15.4.1.3.47,1.2.48,1.42,0,.09-.07.23-.13.23h-3.69Z"/>
    <polygon class="cls-1" points="15.34 20.3 13.3 13.64 11.26 20.3 15.34 20.3"/>
    <path class="cls-2" d="M34.37,21.7l-8.27-.1c.18,1.72,1.29,2.63,2.95,2.87,1.44.21,2.79-.16,4.22-.29v2.74c-1.83.93-4.55,1.11-6.53.55-7.49-2.14-5.09-15.86,3.98-13.13,1.9.57,3.64,2.71,3.64,4.72v2.64ZM30.98,19.11c-.24-3.15-4.7-3.14-4.88,0h4.88Z"/>
    <path class="cls-1" d="M30.98,19.11h-4.88c.18-3.14,4.64-3.15,4.88,0Z"/>
  </g>
</svg>