<?xml version="1.0" encoding="UTF-8"?>
<svg id="Capa_2" data-name="Capa 2" xmlns="http://www.w3.org/2000/svg" viewBox="0 0 40.35 39.56">
  <defs>
    <style>
      .cls-1 {
        fill: #fefefe;
      }

      .cls-2 {
        fill: #e83089;
      }

      .cls-3 {
        fill: #fff;
      }
    </style>
  </defs>
  <g id="Capa_1-2" data-name="Capa 1">
    <g>
      <path class="cls-1" d="M25.9,29.25h-4.03l-1.51-4.29-6.22.05-1.39,4.23h-3.88l5.51-15.35c.11-.4.28-.84.35-1.25.08-.47-.16-1.16.37-1.22.47-.05,4.25-.06,4.44.05l6.37,17.76ZM19.23,21.49l-2.04-6.77-1.94,6.77h3.98Z"/>
      <rect class="cls-1" x="27.6" y="15.82" width="3.59" height="13.33"/>
      <circle class="cls-1" cx="29.39" cy="12.24" r="2.13"/>
    </g>
    <path class="cls-2" d="M6.36.03l27.46-.03c3.5.37,6.24,3.21,6.52,6.72v25.88c-.4,4.02-3.33,6.58-7.32,6.82-8.42-.36-17.23.47-25.61,0-4.04-.23-7-2.73-7.42-6.82V6.72C.29,3.28,2.93.46,6.36.03Z"/>
    <circle class="cls-3" cx="29.39" cy="12.24" r="2.13"/>
    <path class="cls-3" d="M25.9,29.25l-6.37-17.76c-.19-.11-3.97-.11-4.44-.05-.53.06-.29.76-.37,1.22-.07.41-.23.84-.35,1.25l-5.51,15.35h3.88l1.39-4.23,6.22-.05,1.51,4.29h4.03Z"/>
    <rect class="cls-3" x="27.6" y="15.82" width="3.59" height="13.33"/>
    <polygon class="cls-2" points="19.23 21.49 15.24 21.49 17.19 14.73 19.23 21.49"/>
  </g>
</svg>