<?xml version="1.0" encoding="UTF-8"?>
<svg id="Capa_2" data-name="Capa 2" xmlns="http://www.w3.org/2000/svg" viewBox="0 0 13.71 13.7">
  <defs>
    <style>
      .cls-1 {
        fill: #e83089;
      }
    </style>
  </defs>
  <g id="Capa_1-2" data-name="Capa 1">
    <path class="cls-1" d="M13.71,6.85c0,3.78-3.07,6.85-6.86,6.85S0,10.64,0,6.85,3.07,0,6.86,0s6.86,3.07,6.86,6.85ZM13.2,6.85c0-3.5-2.84-6.34-6.35-6.34S.51,3.35.51,6.85s2.84,6.34,6.35,6.34,6.35-2.84,6.35-6.34Z"/>
    <g>
      <path class="cls-1" d="M5.46,3.94c1.1.18,1.62,1.75.77,2.52-.13.12-.31.12-.37.25,1.25.37,1.28,2.19.16,2.75-.12.06-.61.24-.71.24h-2.88V3.94c.91.11,2.16-.14,3.03,0ZM3.53,6.27h1.5c.05,0,.36-.26.4-.33.21-.32.02-1.06-.33-1.06h-1.57v1.39ZM3.53,8.75h1.5c.32,0,.69-.42.69-.77,0-.29-.33-.77-.62-.77h-1.57v1.53Z"/>
      <path class="cls-1" d="M11.27,7.95h-2.92c-.01.69.69,1.13,1.32.84.19-.09.3-.29.48-.33.34-.06.73.09,1.06-.07-.45,1.93-3.3,1.87-3.89-.02-1.02-3.31,4.22-4.08,3.96-.42ZM10.1,7.22c-.04-1.11-1.73-1.09-1.75,0h1.75Z"/>
      <path class="cls-1" d="M10.61,4.23v.73h-2.74c-.2,0-.07-.73-.04-.73h2.77Z"/>
    </g>
  </g>
</svg>