<?xml version="1.0" encoding="UTF-8"?>
<svg id="Capa_2" data-name="Capa 2" xmlns="http://www.w3.org/2000/svg" viewBox="0 0 13.71 13.7">
  <defs>
    <style>
      .cls-1 {
        fill: #e83089;
      }
    </style>
  </defs>
  <g id="Capa_1-2" data-name="Capa 1">
    <path class="cls-1" d="M13.71,6.85c0,3.78-3.07,6.85-6.86,6.85S0,10.64,0,6.85,3.07,0,6.86,0s6.86,3.07,6.86,6.85ZM13.2,6.85c0-3.5-2.84-6.34-6.35-6.34S.51,3.35.51,6.85s2.84,6.34,6.35,6.34,6.35-2.84,6.35-6.34Z"/>
    <g>
      <path class="cls-1" d="M7.17,5.41v.72s.41-.44.41-.44c.78-.51,1.98-.33,2.48.5.1.16.31.69.31.85v3.33h-1.43v-2.73s-.07-.32-.08-.36c-.19-.6-.93-.88-1.42-.44-.05.04-.26.39-.26.41v3.11h-1.49v-4.95h1.49Z"/>
      <rect class="cls-1" x="3.37" y="5.41" width="1.43" height="4.95"/>
      <circle class="cls-1" cx="4.09" cy="4.09" r=".74"/>
    </g>
  </g>
</svg>