<?xml version="1.0" encoding="UTF-8"?>
<svg id="Capa_2" data-name="Capa 2" xmlns="http://www.w3.org/2000/svg" viewBox="0 0 13.71 13.7">
  <defs>
    <style>
      .cls-1 {
        fill: #e83089;
      }
    </style>
  </defs>
  <g id="Capa_1-2" data-name="Capa 1">
    <path class="cls-1" d="M13.71,6.85c0,3.78-3.07,6.85-6.86,6.85S0,10.64,0,6.85,3.07,0,6.86,0s6.86,3.07,6.86,6.85ZM13.2,6.85c0-3.5-2.84-6.34-6.35-6.34S.51,3.35.51,6.85s2.84,6.34,6.35,6.34,6.35-2.84,6.35-6.34Z"/>
    <path class="cls-1" d="M3.29,3.73c2.2.12,4.73-.23,6.9-.02.75.07,1.02.55,1.08,1.25.08.94.1,2.97,0,3.89-.07.58-.39,1.08-.99,1.17-2.17-.15-4.61.2-6.74,0-.57-.05-.99-.54-1.07-1.09-.1-.7-.1-3.71.05-4.34.1-.41.36-.75.78-.86ZM10.18,4.14H3.53s-.15.14-.13.17c.58.24,3.13,2.89,3.49,2.86.44-.04,2.76-2.58,3.42-2.86.02-.03-.1-.16-.13-.17ZM10.74,9.15v-4.58l-2.59,2.29,2.59,2.29ZM2.97,4.66v4.4l2.68-2.2-2.68-2.2ZM10.31,9.49l-2.51-2.2c-.27-.1-.45.28-.68.35-.65.21-.8-.36-1.1-.38-.21-.02-2.3,1.95-2.62,2.23h6.91Z"/>
  </g>
</svg>