<?xml version="1.0" encoding="UTF-8"?>
<svg id="Capa_2" data-name="Capa 2" xmlns="http://www.w3.org/2000/svg" viewBox="0 0 15.54 14.99">
  <defs>
    <style>
      .cls-1 {
        fill: #e83089;
      }
    </style>
  </defs>
  <g id="Capa_1-2" data-name="Capa 1">
    <path class="cls-1" d="M7.09,4.83c.38-1.45,1.9-4.18,3.61-4.16.85,0,1.46,1.06,1.74,1.76.32.81.35,1.93.69,2.62.18.36.61.66.83,1.02.39.63.48,1.22.01,1.84l-.93.7c.86.07,2.11.14,2.42,1.12.28.88-.36,1.61-.43,2.42-.06.62.31,1.28-.21,1.78-.8.77-2.39.23-3.29-.15-1.44-.61-2.69-1.63-4.4-1.54l.68.41c.45.31,1.75,1.43,1.68,2-.09.84-1.73-.15-2.07-.42-.67-.55-1.66-1.99-2.38-2.32-.62-.28-2.48-.73-3.12-.66-.41.05-.62.5-.37.77.06.07.59.17.4.36-.17.17-.68-.21-.73-.5-.16-1.03.86-.9,1.55-.82l1.83.42c-.78-.58-1.51-1.25-2.33-1.78-.47-.31-1.32-.9-1.85-.47s.23.72.2.86c-.06.29-.74-.19-.65-.65.02-.13.28-.41.39-.48.84-.52,2.04.56,2.71,1l1.99,1.55c-1.21-1.63-2.13-3.59-2.83-5.48-.51-1.38-1.3-3.57-.86-5,.52-1.66,1.81-1.06,2.62,0,.89,1.16.99,2.12,2.26,3.24.09.08.73.62.8.56ZM7.22,5.09s.13.03.19.1c1.18,1.34.31,3.55-.64,4.8-.39.52-1.29,1.52-1.42.24-.09-.83.2-1.79.48-2.57.13-.38,1.09-2.44,1.04-2.59-.02-.08-.55-.44-.66-.54-.63-.59-1.16-1.16-1.6-1.91s-.66-1.52-1.39-2.06c-1.08-.81-1.65.15-1.72,1.18-.14,2.07,1.77,6.4,2.84,8.23.82,1.4.96,1.74,2.64,2,.82.13,1.42.12,2.25.4,1.3.45,3.99,2.43,5.3,1.46.56-.42.19-1.09.24-1.68.1-1.27,1.48-2.76-.79-3.2-1.67-.33-2.21.34-3.62.92-.41.17-1.62.67-2,.65-.47-.03-.25-.4-.04-.63.48-.51,1.52-.9,2.19-1.06,1.13-.26,2.24-.07,3.15-.96.65-.63.34-1.37-.14-1.98-.2-.26-.46-.4-.62-.71-.61-1.19-.32-2.72-1.43-3.87-1.17-1.21-2.78.7-3.36,1.68-.13.23-.98,2-.91,2.09ZM5.7,10.59c.27.18,1.14-1.09,1.28-1.33.67-1.12,1.26-2.97.14-3.97-.66,1.69-1.77,3.41-1.42,5.3ZM11.86,8.87c-1.21.18-2.63.38-3.45,1.39.97-.17,1.84-.64,2.74-1l.7-.39ZM9.27,14.7c.26-.25-1.29-1.65-1.53-1.82-.54-.38-1.39-.81-2.05-.83,1.08.96,1.96,2.66,3.58,2.65Z"/>
  </g>
</svg>