<?xml version="1.0" encoding="UTF-8"?>
<svg id="Capa_2" data-name="Capa 2" xmlns="http://www.w3.org/2000/svg" viewBox="0 0 32 31.22">
  <defs>
    <style>
      .cls-1 {
        fill: #cee2e0;
      }

      .cls-2 {
        fill: #392563;
      }

      .cls-3 {
        fill: #ddc5e0;
      }
    </style>
  </defs>
  <g id="Capa_1-2" data-name="Capa 1">
    <path class="cls-3" d="M16.52,29.68l-.47-.34-.47.35c-6.1,4.46-14.34-1.49-12.03-8.69l.18-.56-.47-.34C-2.88,15.67.24,5.99,7.79,5.97h.59s.18-.56.18-.56c2.31-7.19,12.48-7.22,14.84-.04l.18.56h.59c7.56-.02,10.73,9.64,4.63,14.1l-.47.35.18.56c2.36,7.18-5.85,13.18-11.98,8.76Z"/>
    <path class="cls-2" d="M16.28,23.2l-.26-.18-.25.19c-3.29,2.4-7.73-.8-6.49-4.68l.1-.3-.26-.18c-3.3-2.39-1.62-7.6,2.45-7.62h.32s.1-.3.1-.3c1.25-3.88,6.73-3.89,8-.02l.1.3h.32c4.07-.01,5.78,5.2,2.49,7.6l-.25.19.1.3c1.27,3.87-3.16,7.11-6.46,4.72Z"/>
    <circle class="cls-1" cx="16.12" cy="16.15" r="2.44"/>
  </g>
</svg>