<?xml version="1.0" encoding="UTF-8"?>
<svg id="Capa_2" data-name="Capa 2" xmlns="http://www.w3.org/2000/svg" viewBox="0 0 40.35 39.57">
  <defs>
    <style>
      .cls-1 {
        fill: #e83089;
      }

      .cls-2 {
        fill: #fff;
      }
    </style>
  </defs>
  <g id="Capa_1-2" data-name="Capa 1">
    <path class="cls-1" d="M2.13,2.28C3.54.91,5.38.26,7.32.15c8.46-.48,17.39.37,25.9,0,3.91.23,6.86,3.09,7.13,7.01v25.58c-.28,3.64-3.08,6.5-6.72,6.82H6.53c-3.48-.4-6.29-3.19-6.53-6.72V6.78c.21-1.66.92-3.32,2.13-4.49ZM29.69,10.21c0-.19-3.56-.11-3.88,0v5.37c-2.17.14-4-.17-5.87,1.15-3.78,2.68-3.46,10.43,1.05,12.37,1.82.78,5.61.68,7.49.04.37-.13,1.21-.53,1.21-.98V10.21ZM14.45,11.8h-3.79v17.81h3.79V11.8Z"/>
    <path class="cls-1" d="M25.8,26.43h-2.04c-.36,0-1.46-.67-1.74-.95-1.18-1.18-1.26-4.13-.25-5.43.37-.48,1.6-1.29,2.19-1.29h1.69s.15.14.15.15v7.51Z"/>
    <g>
      <path class="cls-2" d="M29.69,10.21v17.96c0,.45-.84.85-1.21.98-1.88.63-5.67.74-7.49-.04-4.51-1.94-4.83-9.69-1.05-12.37,1.87-1.33,3.7-1.01,5.87-1.15v-5.37c.32-.11,3.88-.19,3.88,0ZM25.8,26.43v-7.51s-.14-.15-.15-.15h-1.69c-.6,0-1.82.81-2.19,1.29-1.01,1.29-.93,4.25.25,5.43.28.28,1.38.95,1.74.95h2.04Z"/>
      <rect class="cls-2" x="10.66" y="11.8" width="3.79" height="17.81"/>
    </g>
  </g>
</svg>