<?xml version="1.0" encoding="UTF-8"?>
<svg id="Capa_2" data-name="Capa 2" xmlns="http://www.w3.org/2000/svg" viewBox="0 0 40.35 39.31">
  <defs>
    <style>
      .cls-1 {
        fill: #e83089;
      }

      .cls-2 {
        fill: #fff;
      }
    </style>
  </defs>
  <g id="Capa_1-2" data-name="Capa 1">
    <path class="cls-1" d="M6.36.03l27.36-.03c3.68.41,6.37,3.23,6.62,6.92v25.48c-.24,3.59-2.82,6.47-6.42,6.92H6.43c-3.45-.38-6.19-3.26-6.43-6.72V6.62C.32,3.2,2.96.47,6.36.03ZM12.95,22.09h4.03c.88,0,2.84-1.35,3.43-2.04,3.14-3.65.63-10-4.13-10h-6.97s-.15.14-.15.15v17.36c.37.2.74.03,1.06.04.77.02,1.61.16,2.38.07.1-.01.34-.05.34-.15v-5.42ZM32.68,14.73c-3.36-1.63-9.72-.87-9.04,4.1.35,2.57,2.72,3.1,4.65,3.91s1.82,2.25-.35,2.25c-.34,0-1.13-.08-1.47-.13-.89-.15-1.86-.58-2.76-.77.1.62-.35,2.76.03,3.16.12.12,1.4.51,1.67.57,2.56.61,6.22.32,7.53-2.33s-.25-4.59-2.51-5.66c-.72-.34-2.5-.77-2.87-1.42-.61-1.08.65-1.4,1.49-1.39,1.25.01,2.47.62,3.63,1v-3.28Z"/>
    <g>
      <path class="cls-2" d="M12.95,22.09v5.42c0,.11-.24.14-.34.15-.77.09-1.61-.04-2.38-.07-.32-.01-.69.16-1.06-.04V10.2s.14-.15.15-.15h6.97c4.76,0,7.27,6.35,4.13,10-.59.69-2.55,2.04-3.43,2.04h-4.03ZM16.09,13.33c-.87-.16-2.21.12-3.14,0v5.57h2.94c.33,0,1.19-.59,1.45-.84,1.48-1.41.74-4.36-1.25-4.73Z"/>
      <path class="cls-2" d="M32.68,14.73v3.28c-1.16-.38-2.38-.99-3.63-1-.83,0-2.1.31-1.49,1.39.36.64,2.14,1.07,2.87,1.42,2.26,1.07,3.75,3.13,2.51,5.66s-4.97,2.95-7.53,2.33c-.26-.06-1.55-.45-1.67-.57-.38-.4.08-2.54-.03-3.16.9.19,1.87.62,2.76.77.34.06,1.13.13,1.47.13,2.17,0,2.21-1.47.35-2.25s-4.3-1.34-4.65-3.91c-.68-4.97,5.68-5.74,9.04-4.1Z"/>
    </g>
    <path class="cls-1" d="M16.09,13.33c1.99.37,2.73,3.32,1.25,4.73-.27.25-1.12.84-1.45.84h-2.94v-5.57c.93.12,2.27-.16,3.14,0Z"/>
  </g>
</svg>